<svg xmlns="http://www.w3.org/2000/svg" viewBox="0 0 1000 1000"><defs><style>.cls-1{isolation:isolate;}.cls-2{fill:#fff2d0;}.cls-3{fill:#b0d236;}.cls-4{fill:#7c123a;}.cls-5{fill:#e4425d;}.cls-6{fill:#fffef0;}.cls-7{fill:#58595b;opacity:0.43;}.cls-7,.cls-8{mix-blend-mode:darken;}.cls-8{opacity:0.45;}.cls-9{fill:#939598;}.cls-10{fill:#fff6e0;}</style></defs><g class="cls-1"><g id="Layer_1" data-name="Layer 1"><path class="cls-2" d="M755.2,420.65c-2.74,28.53-13.26,55.25-29.85,79-1.33,1.74-2.72,3.48-4.13,5.2-1,1.16-2,2.33-3,3.48-.13.16-.27.32-.43.49-.65.76-1.33,1.52-2,2.28l-.06.05-.16.17c-1.22,1.38-2.48,2.74-3.75,4.08s-2.7,2.8-4.08,4.16-2.8,2.74-4.22,4.07-2.88,2.67-4.35,4c-1.25,1.12-2.47,2.18-3.75,3.27-.52.43-1,.87-1.55,1.27-1,.87-2,1.72-3.07,2.53-.71.57-1.42,1.14-2.15,1.69-.87.71-1.77,1.41-2.66,2.09-1.25,1-2.51,1.91-3.78,2.83-.71.52-1.44,1-2.18,1.52-1.17.87-2.36,1.72-3.59,2.53-2,1.39-4.08,2.75-6.14,4.08-.82.54-1.63,1.06-2.48,1.55-1.52,1-3,1.9-4.59,2.83-1.88,1.11-3.78,2.23-5.71,3.29-.46.27-.93.51-1.42.79-1,.57-2,1.14-3.07,1.65-.27.17-.57.3-.84.44-.84.46-1.69.92-2.53,1.33l-.79.41c-1.3.68-2.64,1.36-4,2-2.53,1.23-5.09,2.45-7.7,3.62-133.8,101.28-27.11,198.46-27.11,198.46l13.16,15.93a9.24,9.24,0,0,1-7.88,15.09l-10.74-.87c-236.91-75.59-236-240.68-236-240.68-31.13-18-56.61-41.66-74-69l.41-.14A162.79,162.79,0,0,1,275,429.76a181.08,181.08,0,0,1,97,12.51A83,83,0,0,0,404.35,449H621.73a83.65,83.65,0,0,0,43.34-12.53C679,428.05,705.72,418.8,755.2,420.65Z"/><path class="cls-3" d="M626.92,642.2c-56.63,68.95-3.7,112-3.7,112C678.64,710.82,734,728.39,734,728.39c-104.65,51.69-86.19,147.72-86.19,147.72-56.64-40.62-44.32-77.54-44.32-77.54-217.9,6.14-261-194.55-261-194.55-116.81-1.11-141.8-84.78-141.8-84.78l93.94-33c17.35,27.35,42.83,51,74,69,0,0-.9,165.09,236,240.68l10.74.87a9.24,9.24,0,0,0,7.88-15.09l-13.16-15.93S503.4,668.57,637.2,567.29c2.61-1.17,5.17-2.39,7.7-3.62,1.35-.65,2.69-1.33,4-2l.79-.41c.84-.41,1.69-.87,2.53-1.33.27-.14.57-.27.84-.44,1-.51,2-1.08,3.07-1.65.49-.28,1-.52,1.42-.79,1.93-1.06,3.83-2.18,5.71-3.29,1.55-.93,3.07-1.85,4.59-2.83.85-.49,1.66-1,2.48-1.55,2.06-1.33,4.13-2.69,6.14-4.08,1.2-.81,2.42-1.63,3.59-2.53.74-.49,1.47-1,2.18-1.52,1.27-.92,2.53-1.88,3.78-2.83.89-.68,1.79-1.38,2.66-2.09.73-.55,1.44-1.12,2.15-1.69,1-.81,2.07-1.66,3.07-2.53.52-.4,1-.84,1.55-1.27,1.28-1.09,2.5-2.15,3.75-3.27,1.47-1.3,2.91-2.63,4.35-4s2.83-2.69,4.22-4.07,2.74-2.75,4.08-4.16,2.53-2.7,3.75-4.08l.16-.17.65.3,2.13.95,80.75,36.28C751.26,638.5,626.92,642.2,626.92,642.2Z"/><path class="cls-3" d="M372,442.27a83.28,83.28,0,0,0,32.4,6.75H621.73a83.69,83.69,0,0,0,43.35-12.53c13.9-8.43,40.65-17.69,90.12-15.83.47-4.91.72-9.87.72-14.88,0-100.11-95.72-182.36-218.12-191.71l-21.69-90.18L486.29,214.5c-120,11.16-213.15,92.53-213.15,191.28a155,155,0,0,0,1.88,24A180.68,180.68,0,0,1,372,442.27Z"/><path class="cls-4" d="M629.27,524.85c-23.73,15.29-60,26.3-115.42,24.69-53.18-1.55-87.06-12.72-108.57-27.11-44.61-29.8-36-73.41-36-73.41l17.38,19.14,7.91-10.27,14.22,16.58,21.32-15.8,20.55,26.08,18.17-21.32L500,485.54l21.43-22.11,20.07,22.11,22.92-21.32,19.74,18.16,20.55-22.13,16.59,12.64,20.53-16.58,17.4,9.49,15-16.78S675.63,495,629.27,524.85Z"/><path class="cls-5" d="M629.27,524.85c-23.73,15.29-60,26.3-115.42,24.69-53.18-1.55-87.06-12.72-108.57-27.11,26.89-17.83,66.32-29.09,110.23-29.09C561.38,493.34,602.36,505.6,629.27,524.85Z"/><circle class="cls-6" cx="608.71" cy="352.9" r="47.21"/><path d="M601.83,320.2A34.36,34.36,0,0,0,588.35,323a13.75,13.75,0,1,1-18.84,20,34.35,34.35,0,1,0,32.32-22.79Z"/><circle class="cls-6" cx="434.16" cy="352.9" r="47.21"/><path d="M442.36,320.2A34.36,34.36,0,0,0,428.88,323,13.76,13.76,0,1,1,410,343a34.35,34.35,0,1,0,32.33-22.79Z"/><ellipse class="cls-7" cx="543.06" cy="376.72" rx="11.89" ry="8.34" transform="translate(-96.8 542.29) rotate(-49.26)"/><ellipse class="cls-7" cx="500.73" cy="376.72" rx="8.34" ry="11.89" transform="translate(-124.52 418.11) rotate(-40.74)"/><g class="cls-8"><path class="cls-9" d="M655.54,365.83l29.18,5.39c2.56.47,3.66-3.46,1.08-3.94l-29.18-5.39c-2.56-.47-3.66,3.46-1.08,3.94Z"/></g><g class="cls-8"><path class="cls-9" d="M653.12,375.42l30.27,11.35c2.46.92,3.52-3,1.08-3.94l-30.26-11.35c-2.46-.92-3.52,3-1.09,3.94Z"/></g><g class="cls-8"><path class="cls-9" d="M649,384.24l23.49,14.41c2.24,1.37,4.3-2.15,2.06-3.52L651,380.72c-2.24-1.37-4.29,2.15-2,3.52Z"/></g><g class="cls-8"><path class="cls-9" d="M386.24,365.83l-29.18,5.39c-2.56.47-3.66-3.46-1.08-3.94l29.17-5.39c2.57-.47,3.67,3.46,1.09,3.94Z"/></g><g class="cls-8"><path class="cls-9" d="M388.65,375.42l-30.26,11.35c-2.46.92-3.52-3-1.08-3.94l30.26-11.35c2.46-.92,3.52,3,1.08,3.94Z"/></g><g class="cls-8"><path class="cls-9" d="M392.83,384.24l-23.49,14.41c-2.24,1.37-4.3-2.15-2.06-3.52l23.5-14.41c2.24-1.37,4.29,2.15,2.05,3.52Z"/></g><path class="cls-10" d="M659.7,329.68a6.77,6.77,0,0,1-4.74-1.93c-12.89-12.54-44.45-29.83-81-15.05a6.8,6.8,0,0,1-5.1-12.6c43-17.41,80.33,3.07,95.58,17.91a6.8,6.8,0,0,1-4.74,11.67Z"/><path class="cls-10" d="M387,329.68A6.8,6.8,0,0,1,382.21,318c15.26-14.84,52.56-35.32,95.58-17.91a6.8,6.8,0,1,1-5.1,12.6c-36.53-14.77-68.1,2.51-81,15.05A6.76,6.76,0,0,1,387,329.68Z"/><path class="cls-10" d="M653.38,417.1s-29.21,38.47-66.7-5.35-65.25-11.2-65.25-11.2h0s-27.75-32.62-65.24,11.2-66.71,5.35-66.71,5.35-6.81,51.62,62.81,29.22,69.14.49,69.14.49h0s-.48-22.89,69.14-.49S653.38,417.1,653.38,417.1Z"/></g></g></svg>