<svg xmlns="http://www.w3.org/2000/svg" viewBox="0 0 1000 1000"><defs><style>.cls-1{isolation:isolate;}.cls-2{fill:#fff2d0;}.cls-3{fill:#f48585;}.cls-4{fill:#7c123a;}.cls-5{fill:#e4425d;}.cls-6{fill:#fffef0;}.cls-7{fill:#939598;mix-blend-mode:darken;opacity:0.45;}.cls-8{fill:#fff;}</style></defs><g class="cls-1"><g id="Layer_1" data-name="Layer 1"><path class="cls-2" d="M731.41,420.64c-4.78.19-9.27.49-13.51.9-2.12.19-4.19.41-6.17.68a160,160,0,0,0-25.42,5.16c-1.42.44-2.75.87-4.08,1.31q-2.44.81-4.65,1.71c-.74.27-1.44.57-2.15.87l-2,.87c-1.06.49-2.07,1-3,1.44-1.45.74-2.81,1.47-4.06,2.18-.43.22-.81.46-1.22.7A83.57,83.57,0,0,1,621.73,449H404.35l-2.61,0-2.61-.13a77.36,77.36,0,0,1-10.31-1.36c-.65-.14-1.33-.28-2-.44-1-.22-2-.46-3.08-.73-1.3-.36-2.63-.74-3.91-1.14-1.09-.33-2.18-.71-3.24-1.09l-1.52-.57a1.56,1.56,0,0,1-.33-.14c-.95-.35-1.9-.71-2.82-1.11A181.6,181.6,0,0,0,353,435.43c-3.1-.92-6.17-1.77-9.22-2.5-4.24-1-8.45-1.88-12.56-2.56-.54-.1-1.09-.19-1.63-.27-2.31-.38-4.57-.7-6.82-1-.63-.08-1.28-.16-1.91-.22-1.11-.13-2.23-.24-3.34-.32-.63-.08-1.25-.14-1.88-.17-.41-.05-.79-.08-1.17-.11-.21,0-.46,0-.68,0-1.22-.11-2.47-.17-3.67-.22a3.09,3.09,0,0,0-.51,0c-.28,0-.52,0-.76,0a180.63,180.63,0,0,0-27.79.95c-2.07.22-4.11.49-6.07.76v0a162.71,162.71,0,0,0,20.07,56.28l-.41.14c17.35,27.35,42.83,51,74,69,0,0-.9,165.1,236,240.69l10.74.87a9.24,9.24,0,0,0,7.88-15.09l-13.16-15.94S503.4,668.56,637.2,567.28c2.61-1.17,5.17-2.4,7.7-3.62,1.36-.65,2.69-1.33,4-2l.79-.41c.84-.41,1.69-.87,2.53-1.33.27-.14.57-.27.84-.44,1-.51,2-1.09,3.07-1.66.49-.27,1-.51,1.42-.79,1.93-1.06,3.83-2.17,5.71-3.29,1.55-.92,3.07-1.84,4.59-2.82.85-.49,1.66-1,2.48-1.55,2.06-1.34,4.13-2.69,6.14-4.08,1.23-.82,2.42-1.66,3.59-2.53.74-.49,1.47-1,2.18-1.52,1.28-.93,2.53-1.88,3.78-2.83.89-.68,1.79-1.39,2.66-2.09.74-.55,1.44-1.12,2.15-1.69,1-.82,2.07-1.66,3.07-2.53.52-.41,1-.84,1.55-1.28,1.28-1.08,2.5-2.14,3.75-3.26,1.47-1.3,2.91-2.64,4.35-4s2.83-2.69,4.22-4.08,2.74-2.74,4.08-4.16,2.53-2.69,3.75-4.08l.16-.16.06-.05c.68-.76,1.36-1.53,2-2.29a4.87,4.87,0,0,0,.43-.49c1-1.14,2-2.31,3-3.48,1.41-1.71,2.8-3.45,4.13-5.19,16.59-23.71,27.11-50.41,29.85-78.93v0C746.61,420.31,738.7,420.31,731.41,420.64ZM555.66,548.16a318.13,318.13,0,0,1-41.82,1.39Q496.64,549,482,547.26c-35.43-4.24-59.9-13.54-76.76-24.82,26.89-17.84,66.32-29.09,110.23-29.09,45.87,0,86.84,12.26,113.76,31.51C612.1,535.9,588.39,544.71,555.66,548.16Z"/><path class="cls-3" d="M626.92,642.2c-56.63,68.95-3.7,112-3.7,112C678.64,710.82,734,728.39,734,728.39c-104.65,51.69-86.19,147.72-86.19,147.72-56.64-40.62-44.32-77.54-44.32-77.54-217.9,6.14-261-194.55-261-194.55-116.81-1.11-141.8-84.78-141.8-84.78l93.94-33c17.35,27.35,42.83,51,74,69,0,0-.9,165.09,236,240.68l10.74.87a9.24,9.24,0,0,0,7.88-15.09l-13.16-15.93S503.4,668.57,637.2,567.29c2.61-1.17,5.17-2.4,7.7-3.62,1.35-.65,2.69-1.33,4-2l.79-.41c.84-.41,1.69-.87,2.53-1.33.27-.14.57-.27.84-.44,1-.51,2-1.08,3.07-1.65.49-.28,1-.52,1.42-.79,1.93-1.06,3.83-2.18,5.71-3.29,1.55-.93,3.07-1.85,4.59-2.83.85-.49,1.66-1,2.48-1.55,2.06-1.33,4.13-2.69,6.14-4.08,1.2-.81,2.42-1.63,3.59-2.53.74-.49,1.47-1,2.18-1.52,1.27-.92,2.53-1.88,3.78-2.83.89-.68,1.79-1.38,2.66-2.09.73-.55,1.44-1.12,2.15-1.69,1-.81,2.07-1.66,3.07-2.53.52-.4,1-.84,1.55-1.27,1.28-1.09,2.5-2.15,3.75-3.27,1.47-1.3,2.91-2.63,4.35-4s2.83-2.69,4.22-4.08,2.74-2.74,4.08-4.16,2.53-2.69,3.75-4.07l.16-.17.65.3,2.13.95,80.75,36.28C751.26,638.5,626.92,642.2,626.92,642.2Z"/><path class="cls-3" d="M537.79,214.08,516.1,123.89l-29.8,90.6c-120,11.17-213.17,92.55-213.17,191.28a156.09,156.09,0,0,0,1.87,24v0c2-.28,4-.55,6.07-.79a180.63,180.63,0,0,1,27.79-.95c.24,0,.48,0,.76,0a3.09,3.09,0,0,1,.51,0c1.2.05,2.45.11,3.67.22l1.85.13c.63,0,1.25.09,1.88.17,1.11.08,2.23.19,3.34.32.63.06,1.28.14,1.91.22,2.25.25,4.51.57,6.82,1,.54.08,1.09.17,1.63.27,4.11.68,8.32,1.53,12.56,2.56,3,.73,6.12,1.58,9.22,2.5a181.6,181.6,0,0,1,18.93,6.83c.92.4,1.87.76,2.82,1.11a1.56,1.56,0,0,0,.33.14l1.52.57c1.06.38,2.15.76,3.24,1.09,1.3.4,2.61.78,3.91,1.14,1,.27,2,.51,3.08.73.65.16,1.33.3,2,.44a77.36,77.36,0,0,0,10.31,1.36l2.61.13c.87,0,1.74.06,2.61.06H621.73a83.57,83.57,0,0,0,43.34-12.54l1.22-.73c1.25-.71,2.61-1.44,4.06-2.18,1-.46,2-.95,3-1.44l2-.87c.71-.3,1.41-.6,2.15-.87q2.2-.9,4.65-1.71c1.33-.44,2.66-.87,4.08-1.31a160,160,0,0,1,25.42-5.16c2-.27,4-.49,6.17-.68,4.24-.41,8.73-.71,13.51-.9,7.29-.3,15.2-.3,23.79,0v0c.47-4.92.71-9.84.71-14.87C755.91,305.68,660.2,223.4,537.79,214.08Zm70.92,113.84a46.88,46.88,0,0,1,30.72,11.4,45.4,45.4,0,0,1,8.08,9,43.27,43.27,0,0,1,2.9,4.7,47,47,0,0,1,4.17,11.07,41.78,41.78,0,0,1,1.08,6.39,45,45,0,0,1-.21,11.15,47.2,47.2,0,1,1-46.74-53.68Zm-6.88,83.26a34.37,34.37,0,1,0-13.49-66,13.75,13.75,0,1,1-18.84,20,34.3,34.3,0,0,0,32.33,45.95Z"/><path class="cls-4" d="M629.26,524.86c-26.92-19.25-67.89-31.51-113.76-31.51-43.91,0-83.34,11.25-110.23,29.09-44.62-29.8-36-73.41-36-73.41l17.38,19.14,7.91-10.28,14.22,16.59,21.32-15.8,20.55,26.07,18.16-21.31L500,485.54l21.43-22.1,20.06,22.1,22.92-21.31,19.74,18.16,20.56-22.13,16.58,12.64,20.53-16.59,17.4,9.49,15-16.77S675.62,495,629.26,524.86Z"/><path class="cls-5" d="M629.26,524.86c-17.16,11-40.87,19.85-73.6,23.3a318.13,318.13,0,0,1-41.82,1.39Q496.64,549,482,547.26c-35.43-4.24-59.9-13.54-76.76-24.82,26.89-17.84,66.32-29.09,110.23-29.09C561.37,493.35,602.34,505.61,629.26,524.86Z"/><path class="cls-6" d="M655.66,370.45a41.78,41.78,0,0,0-1.08-6.39A47,47,0,0,0,650.41,353a43.27,43.27,0,0,0-2.9-4.7,45.4,45.4,0,0,0-8.08-9,47.21,47.21,0,1,0,16,42.28,45,45,0,0,0,.21-11.15Zm-53.83,40.73a34.3,34.3,0,0,1-32.33-45.95,13.75,13.75,0,1,0,18.84-20,34.37,34.37,0,1,1,13.49,66Z"/><path class="cls-6" d="M636.19,376.81a34.37,34.37,0,1,1-68.73,0,34.72,34.72,0,0,1,2-11.58,13.75,13.75,0,1,0,18.84-20,34.38,34.38,0,0,1,47.85,31.62Z"/><path d="M636.19,376.81a34.37,34.37,0,1,1-68.73,0,34.72,34.72,0,0,1,2-11.58,13.75,13.75,0,1,0,18.84-20,34.38,34.38,0,0,1,47.85,31.62Z"/><circle class="cls-6" cx="434.16" cy="375.14" r="47.21"/><path d="M442.36,342.44a34.36,34.36,0,0,0-13.48,2.75A13.76,13.76,0,1,1,410,365.24a34.34,34.34,0,1,0,32.33-22.8Z"/><ellipse class="cls-7" cx="543.06" cy="420.32" rx="11.89" ry="8.34" transform="translate(-129.83 557.43) rotate(-49.26)"/><ellipse class="cls-7" cx="500.73" cy="420.32" rx="8.34" ry="11.89" transform="translate(-152.97 428.68) rotate(-40.74)"/><path class="cls-5" d="M563.82,442.63a19.54,19.54,0,0,1-1.07,6.4H480.1a19.53,19.53,0,0,1-1.06-6.4c0-15.87,28.76-9,42.39,0C536.49,432.34,563.82,426.76,563.82,442.63Z"/><path class="cls-5" d="M555.66,548.16a42.38,42.38,0,0,1-73.63-.9q14.6,1.75,31.81,2.29A318.13,318.13,0,0,0,555.66,548.16Z"/><path class="cls-7" d="M647.51,348.29a45.4,45.4,0,0,0-8.08-9c4.43-5,7.26-12.65,1.63-23.2C641.88,316.88,658.68,333,647.51,348.29Z"/><path class="cls-7" d="M654.58,364.06A47,47,0,0,0,650.41,353c6.15-2.47,12-7.91,11.89-19.74C662.3,333.25,670.13,354.92,654.58,364.06Z"/><path class="cls-7" d="M673.23,358.29s-2.67,20-17.78,23.31a45,45,0,0,0,.21-11.15C661.75,370.45,668.47,367.76,673.23,358.29Z"/><path class="cls-7" d="M395.2,348.29a45,45,0,0,1,8.07-9c-4.43-5-7.26-12.65-1.63-23.2C400.83,316.88,384,333,395.2,348.29Z"/><path class="cls-7" d="M388.13,364.06A46.93,46.93,0,0,1,392.29,353c-6.15-2.47-12-7.91-11.88-19.74C380.41,333.25,372.58,354.92,388.13,364.06Z"/><path class="cls-7" d="M369.48,358.29s2.66,20,17.78,23.31a41.51,41.51,0,0,1-.46-6.45,45.5,45.5,0,0,1,.24-4.7C381,370.45,374.23,367.76,369.48,358.29Z"/><path class="cls-8" d="M543.06,355.79A21.26,21.26,0,0,0,521.82,377a21,21,0,0,0,2,9H517a21.19,21.19,0,1,0-3.24,5h13.3a21.23,21.23,0,1,0,16-35.21Zm-45.28,37.49A16.25,16.25,0,1,1,514,377a16.23,16.23,0,0,1-16.24,16.24Zm45.28,0A16.25,16.25,0,1,1,559.3,377,16.26,16.26,0,0,1,543.06,393.28Z"/></g></g></svg>