<svg version="1.1"
      xmlns="http://www.w3.org/2000/svg"
      xmlns:xlink="http://www.w3.org/1999/xlink"  id="snapshot-16775" width="250" height="250" viewBox="0 0 250 250"><desc>This image was made on Patterninja.com</desc><defs>
<!-- image 54467 -->
<g id="transformed-54467" data-image="54467" transform="translate(35.9068531892234, 55.90685318922337) rotate(23, 59.0931468107766, 59.09314681077663)"><g><svg version="1.1" width="118.1862936215532px" height="118.18629362155326px" viewBox="0 0 118.1862936215532 118.18629362155326"><g id="original-54467"><svg xmlns="http://www.w3.org/2000/svg" viewBox="0 0 512.001 512.001" xmlns:xlink="http://www.w3.org/1999/xlink" version="1.1" preserveAspectRatio="xMidYMid meet">
  <path d="M510.11 306.745c-.134-.189-13.482-18.958-24.994-36.68-5.733-8.825-5.992-13.96-1.152-22.885 10.979-20.25 22.637-42.153 22.754-42.372 2.583-4.856.853-10.885-3.913-13.629-2.172-1.253-53.664-30.432-93.075-11.376-7.617 3.682-15.153 8.31-22.399 13.758-8.493 6.385-20.497 13.238-29.437 9.639l-1.722-.694c-6.871-2.767-13.886-5.591-21.014-8.388l-2.516-15.327c-2.397-14.598-11.921-26.854-25.475-32.784l-45.304-19.822a23.084 23.084 0 0 1-9.488-7.671c-6.898-9.597-17.133-15.854-28.82-17.615-11.688-1.763-23.31 1.198-32.733 8.336l-3.857 2.923a43.277 43.277 0 0 0-11.07 12.355l-27.182 45.5c-47.081 8.249-79.935 24.532-101.077 38.87-32.982 22.368-45.821 45.055-46.351 46.009a10.205 10.205 0 0 0 0 9.906c1.369 2.463 33.962 59.323 130.659 81.565 2.606 41.714 55.461 63.56 57.766 64.493a10.189 10.189 0 0 0 7.644 0c2.225-.9 51.577-21.297 57.324-60.25 8.011-1.637 16.023-3.665 23.984-5.956 15.38 14.194 43.938 27.729 47.364 29.326a10.199 10.199 0 0 0 14.227-6.858c.285-1.182 6.328-26.549 6.747-47.052l1.998-.799 6.911-2.762c7.846-3.126 19.22 3.565 28.255 9.742 10.295 7.036 21.556 12.783 32.565 16.617 7.043 2.452 14.267 3.473 21.427 3.472 34.866-.003 68.052-24.245 69.723-25.484 4.46-3.308 5.453-9.581 2.231-14.107zM193.406 134.976a22.953 22.953 0 0 1 5.876-6.559l3.857-2.923c5.001-3.789 11.17-5.359 17.374-4.424 6.203.935 11.635 4.256 15.297 9.351a43.495 43.495 0 0 0 17.876 14.454l45.303 19.821a22.992 22.992 0 0 1 13.521 17.402l.604 3.675c-32.292-11.688-66.231-21.167-99.361-21.167-13.898 0-26.934.682-39.178 1.892l18.831-31.522zm.148 255.21c-10.873-5.338-41.323-22.488-41.323-47.02 0-13.774.355-24.028 4.94-30.545 5.091-7.236 16.985-10.753 36.358-10.753 41.298 0 41.298 15.545 41.298 41.298.001 24.756-30.359 41.723-41.273 47.02zm129.5-40.537c-6.564-3.502-14.283-7.937-20.934-12.491 8.131-2.826 16.146-5.813 23.987-8.843-.676 7.461-1.906 15.154-3.053 21.334zm100.38-26.049c-9.331-3.25-18.932-8.156-27.76-14.191-8.492-5.806-28.382-19.4-47.32-11.85l-6.934 2.771c-26.922 10.77-57.041 22.805-86.532 29.369-.689-10.796-2.742-20.532-8.728-28.885-9.456-13.196-26.178-19.342-52.629-19.342-26.867 0-43.721 6.169-53.041 19.412-5.145 7.312-7.222 15.907-8.069 24.625-14.21-3.505-26.789-7.808-37.844-12.491a66.04 66.04 0 0 0 15.696-10.423c4.198-3.755 4.558-10.203.802-14.401-3.756-4.197-10.202-4.559-14.401-.802-8.165 7.304-18.651 11.402-29.613 11.615-8.495-5.152-15.499-10.272-21.114-14.893-12.046-9.912-19.576-18.957-23.492-24.278 12.823-17.446 64.657-74.833 191.3-74.833 44.336 0 92.397 19.352 134.799 36.426l1.723.694c14.263 5.743 30.854 1.62 49.312-12.256 6.192-4.654 12.592-8.591 19.021-11.7 21.591-10.441 50.73-.153 65.162 6.315a6612.008 6612.008 0 0 1-17.738 32.975c-8.426 15.539-7.834 28.614 1.979 43.718 6.851 10.548 14.334 21.451 19.407 28.743-15.424 9.167-42.747 21.075-63.986 13.682z" fill="rgba(72, 174, 202, 1)" stroke="none"/>
  <path d="M122.127 243.064c-5.632 0-10.199 4.567-10.199 10.199 0 2.41-.189 4.831-.56 7.197-.874 5.565 2.928 10.784 8.493 11.659.535.085 1.069.124 1.595.124 4.934 0 9.273-3.589 10.063-8.617.534-3.409.807-6.895.807-10.361 0-5.634-4.567-10.201-10.199-10.201z" fill="rgba(72, 174, 202, 1)" stroke="none"/>
  <path d="M69.455 241.966c-6.834 0-12.394 5.56-12.394 12.393 0 6.835 5.56 12.394 12.394 12.394 6.833 0 12.393-5.56 12.393-12.394.001-6.833-5.558-12.393-12.393-12.393z" fill="rgba(72, 174, 202, 1)" stroke="none"/>
</svg>
</g></svg></g></g>
<!-- /image 54467 -->

<!-- image 12624 -->
<g id="transformed-12624" data-image="12624" transform="translate(167.53633607102614, 185.53633607102614) rotate(347, 58.463663928973865, 58.463663928973844)"><g><svg version="1.1" width="116.92732785794773px" height="116.92732785794769px" viewBox="0 0 116.92732785794773 116.92732785794769"><g id="original-12624"><svg xmlns="http://www.w3.org/2000/svg" viewBox="0 0 432.06 432.06" xmlns:xlink="http://www.w3.org/1999/xlink" version="1.1" preserveAspectRatio="xMidYMid meet">
  <path d="M431.503 214.091c-13.844-35.103-36.991-65.519-66.941-87.96-30.127-22.573-65.671-35.893-102.892-38.575l-76.768-38.814a7.76 7.76 0 0 0-.462-.216c-3.47-1.485-7.017-2.237-10.543-2.237-14.239 0-24.978 11.991-24.978 27.892 0 10.259 4.691 19.05 10.124 29.228a746.815 746.815 0 0 1 2.075 3.908c-32.079 15.982-59.87 41.013-79.482 71.591l-52.46-32.163a8.156 8.156 0 0 0-1.034-.535c-2.722-1.165-5.516-1.755-8.304-1.755C8.528 144.454 0 153.856 0 166.324c0 14.541 16.277 39.445 24.2 50.704C16.277 228.286 0 253.19 0 267.731c0 12.468 8.528 21.87 19.838 21.87 2.788 0 5.583-.591 8.306-1.756a8.205 8.205 0 0 0 1.033-.534l52.455-32.159c19.558 30.612 46.449 54.973 78.465 71.083-.529 1.035-1.053 2.053-1.571 3.059-5.154 10.002-9.605 18.641-9.605 28.586 0 15.899 10.737 27.89 24.977 27.891h.003c3.524 0 7.071-.753 10.541-2.238a7.62 7.62 0 0 0 .484-.227l71.589-36.48c77.367-3.531 145.924-53.162 174.989-126.865a8.013 8.013 0 0 0-.001-5.87zM322.279 314.593c-22.115-23.023-35.251-59.884-35.251-99.28 0-18.159 2.696-35.639 8.013-51.953a8 8 0 0 0-15.213-4.958c-5.839 17.918-8.8 37.065-8.8 56.911 0 40.908 13.128 79.621 35.47 105.676a177.392 177.392 0 0 1-52.351 9.921 7.989 7.989 0 0 0-3.341.867l-72.881 37.139c-1.392.568-2.745.856-4.027.856h-.001c-5.202 0-8.978-5.001-8.978-11.891 0-6.066 3.283-12.438 7.828-21.258 1.637-3.177 3.492-6.778 5.344-10.689a8.004 8.004 0 0 0-3.935-10.712c-34.721-15.705-63.414-41.679-82.976-75.116a8 8 0 0 0-11.087-2.78l-58.691 35.982c-.556.195-1.081.293-1.565.293-2.26 0-3.838-2.414-3.838-5.87 0-8.872 14.32-32.206 24.489-45.942a8.002 8.002 0 0 0 0-9.522C30.32 198.531 16 175.196 16 166.324c0-3.457 1.578-5.87 3.839-5.87.484 0 1.009.098 1.565.292l58.689 35.982a8 8 0 0 0 11.087-2.781c19.498-33.326 49.344-60.172 84.041-75.594a7.997 7.997 0 0 0 3.957-10.785c-2.07-4.294-4.168-8.226-6.02-11.694-4.783-8.962-8.239-15.438-8.239-21.695 0-6.891 3.775-11.892 8.978-11.892 1.285 0 2.644.289 4.039.859l77.963 39.418a7.994 7.994 0 0 0 3.103.845 177.775 177.775 0 0 1 45.277 8.875 129.478 129.478 0 0 0-10.75 15.523 8.001 8.001 0 0 0 13.773 8.143c3.822-6.464 8.103-12.343 12.751-17.526a180.69 180.69 0 0 1 34.914 20.509c26.739 20.035 47.596 46.987 60.466 78.091-18.253 44.12-51.968 78.552-93.154 97.569z" fill="rgba(72, 174, 202, 1)" stroke="none"/>
  <path d="M344.061 169.065c-13.132 0-23.815 10.684-23.815 23.816s10.684 23.816 23.815 23.816 23.815-10.684 23.815-23.816-10.684-23.816-23.815-23.816zm0 31.632c-4.31 0-7.815-3.506-7.815-7.816s3.506-7.816 7.815-7.816 7.815 3.506 7.815 7.816-3.506 7.816-7.815 7.816z" fill="rgba(72, 174, 202, 1)" stroke="none"/>
</svg>
</g></svg></g></g>
<!-- /image 12624 -->
</defs><rect x="0" y="0" width="250" height="250" fill="rgba(89, 189, 210, 1)"></rect><use xlink:href="#transformed-54467" transform="translate(-250, -250)"></use><use xlink:href="#transformed-54467" transform="translate(0, -250)"></use><use xlink:href="#transformed-54467" transform="translate(250, -250)"></use><use xlink:href="#transformed-54467" transform="translate(-250, 0)"></use><use xlink:href="#transformed-54467" transform="translate(0, 0)"></use><use xlink:href="#transformed-54467" transform="translate(250, 0)"></use><use xlink:href="#transformed-54467" transform="translate(-250, 250)"></use><use xlink:href="#transformed-54467" transform="translate(0, 250)"></use><use xlink:href="#transformed-54467" transform="translate(250, 250)"></use><use xlink:href="#transformed-12624" transform="translate(-250, -250)"></use><use xlink:href="#transformed-12624" transform="translate(0, -250)"></use><use xlink:href="#transformed-12624" transform="translate(250, -250)"></use><use xlink:href="#transformed-12624" transform="translate(-250, 0)"></use><use xlink:href="#transformed-12624" transform="translate(0, 0)"></use><use xlink:href="#transformed-12624" transform="translate(250, 0)"></use><use xlink:href="#transformed-12624" transform="translate(-250, 250)"></use><use xlink:href="#transformed-12624" transform="translate(0, 250)"></use><use xlink:href="#transformed-12624" transform="translate(250, 250)"></use></svg>